<?xml version="1.0" encoding="UTF-8" standalone="no"?><!DOCTYPE svg PUBLIC "-//W3C//DTD SVG 1.1//EN" "http://www.w3.org/Graphics/SVG/1.1/DTD/svg11.dtd"><svg width="100%" height="100%" viewBox="0 0 4961 2717" version="1.1" xmlns="http://www.w3.org/2000/svg" xmlns:xlink="http://www.w3.org/1999/xlink" xml:space="preserve" xmlns:serif="http://www.serif.com/" style="fill-rule:evenodd;clip-rule:evenodd;stroke-linejoin:round;stroke-miterlimit:2;"><g><path d="M2631.739,109.377l-6.91,2501.579c-0.003,1.244 -0.972,2.273 -2.214,2.351l-189.181,11.912c-0.661,0.042 -1.309,-0.196 -1.786,-0.655c-0.477,-0.459 -0.74,-1.097 -0.724,-1.759l58.905,-2465.759c0.024,-0.984 0.655,-1.851 1.585,-2.175l137.187,-47.731c0.723,-0.252 1.524,-0.137 2.148,0.308c0.624,0.445 0.993,1.164 0.991,1.93Z" style="fill:#f2af0d;"/><path d="M2677.254,63.152l-183.419,66.039c-0.843,0.304 -1.783,0.155 -2.492,-0.393l-22.432,-17.354c-0.651,-0.503 -1.027,-1.283 -1.017,-2.106l0.246,-19.683c0.014,-1.098 0.71,-2.071 1.746,-2.438l206.474,-73.171c0.556,-0.197 1.161,-0.201 1.719,-0.011l616.886,209.761c1.055,0.359 1.768,1.346 1.777,2.46l0.166,20.039c0.003,0.417 -0.092,0.828 -0.28,1.2l-11.667,23.183c-0.59,1.173 -1.957,1.728 -3.197,1.299l-604.511,-208.825Z" style="fill:#f2af0d;"/><path d="M3297.493,2613.571l-139.167,0c-1.442,0 -2.613,-1.165 -2.621,-2.607l-9.611,-1703.44l-390.944,-75.309l0,1782.454c0,1.398 -1.097,2.55 -2.493,2.618l-83.002,4.064c-0.718,0.035 -1.419,-0.226 -1.939,-0.723c-0.52,-0.497 -0.813,-1.185 -0.811,-1.904l7.709,-2520.476c0.003,-0.845 0.412,-1.636 1.1,-2.127c0.688,-0.49 1.57,-0.619 2.369,-0.346l605.487,206.971c1.055,0.361 1.766,1.349 1.773,2.464l14.77,2305.722c0.004,0.698 -0.27,1.369 -0.762,1.864c-0.492,0.495 -1.161,0.774 -1.859,0.774Z" style="fill:#f2af0d;"/><path d="M1573.56,109.371l-0.174,2501.579c-0,1.278 -1.017,2.324 -2.294,2.361l-181.744,5.238c-0.645,0.019 -1.27,-0.228 -1.729,-0.682c-0.459,-0.454 -0.712,-1.076 -0.7,-1.722l44.732,-2459.085c0.018,-0.989 0.651,-1.863 1.586,-2.188l137.187,-47.731c0.722,-0.251 1.522,-0.137 2.145,0.306c0.623,0.443 0.994,1.161 0.993,1.925Z" style="fill:#267bd9;"/><path d="M1619.074,62.878l-183.505,66.069c-0.76,0.274 -1.607,0.14 -2.246,-0.354l-22.432,-17.354c-0.586,-0.454 -0.926,-1.156 -0.917,-1.898l0.246,-19.683c0.012,-0.99 0.64,-1.866 1.573,-2.197l206.474,-73.171c0.501,-0.177 1.047,-0.181 1.55,-0.01l616.886,209.761c0.951,0.323 1.593,1.213 1.602,2.217l0.166,20.039c0.003,0.375 -0.083,0.746 -0.252,1.081l-11.667,23.183c-0.532,1.057 -1.763,1.557 -2.881,1.171l-604.597,-208.855Z" style="fill:#267bd9;"/><path d="M1705.464,2617.543c-0.066,-0.052 -0.132,-0.106 -0.197,-0.16l0.255,-0.617l0.268,-0.019l-0.326,0.796Zm-2.805,-2.667l-88.613,2.462c-1.728,0.048 -3.401,-0.606 -4.639,-1.812c-1.238,-1.206 -1.934,-2.862 -1.931,-4.59l5.19,-2512.692c0.004,-2.061 1.002,-3.993 2.68,-5.19c1.678,-1.197 3.829,-1.511 5.779,-0.845l605.487,206.971c2.568,0.878 4.302,3.281 4.324,5.995l18.969,2288.228c0.029,3.481 -2.734,6.345 -6.214,6.442l-151.705,4.215l-0.014,0l-352.839,12.293l344.356,-24.847c1.05,-0.076 1.863,-0.95 1.862,-2.003l-1.214,-1677.211c-0.001,-0.961 -0.683,-1.787 -1.627,-1.969l-379.289,-73.064c-0.588,-0.113 -1.196,0.042 -1.658,0.424c-0.462,0.382 -0.729,0.95 -0.728,1.549l1.822,1775.645Z" style="fill:#267bd9;"/><path d="M4185.361,2452.621c-1957.495,526.416 -4217.286,60.253 -3973.531,46.19c0,0 2625.845,-16.419 3856.724,-541.161l-133.812,-207.977c280.322,119.403 574.269,181.514 832.196,222.534c-198.183,219.735 -404.93,456.102 -569.52,709.43l-12.057,-229.016Z" style="fill:#f2af0d;"/></g></svg>